<svg id="Layer_1" data-name="Layer 1" xmlns="http://www.w3.org/2000/svg" viewBox="0 0 64 64"><path d="M14.7,15.18c-3.56-1.27-8-2.3-11,.78S2.3,23.79,4.86,26.63s6,5,7.08,8.83c.16.55.56,1.79.13,2.29s-2,.7-2.61.84c-1.49.34-4.16.64-4.78-1.27C4,35.2.62,36.1,1.32,38.25c1.53,4.72,7,4.44,10.83,3.24,2.15-.67,3.56-2.08,3.54-4.43a11.36,11.36,0,0,0-1.83-5.75,23.7,23.7,0,0,0-4-4.7c-1.48-1.39-3.28-2.79-4-4.74-.67-1.76-.27-3.59,1.63-4.25,2.07-.73,4.36.22,6.31.92,2.12.77,3-2.6.93-3.36Z"/><path d="M19.65,18.13a66.4,66.4,0,0,1,6.5,12.27c1.71,4.31,2.76,8.71,6,12.21,1.52,1.65,4-.82,2.46-2.47-3-3.3-3.9-7.84-5.59-11.88a70,70,0,0,0-6.35-11.89c-1.24-1.85-4.26-.11-3,1.76Z"/><path d="M21.1,41.62A43.29,43.29,0,0,0,35.87,18.87c.56-2.17-2.8-3.09-3.37-.92a40.18,40.18,0,0,1-13.86,21.2,1.75,1.75,0,0,0,0,2.47,1.78,1.78,0,0,0,2.46,0Z"/><path d="M39.31,18.88c.92,4,1.66,8,2.36,12a38.32,38.32,0,0,0,3.24,11c1,2,4,.24,3-1.76-1.67-3.28-2.34-7-3-10.55-.66-3.88-1.4-7.75-2.29-11.59-.51-2.19-3.87-1.26-3.36.92Z"/><path d="M41.43,20.18a31.73,31.73,0,0,1,9.51-.91,29.94,29.94,0,0,1,4.72.65,7.27,7.27,0,0,1,2.17.53c.29.29.07,1,0,1.3-.77,2.17-3.36,3.17-5.41,3.66-3,.71-6,.92-8.81,2.36-1.8.94-.52,3.61,1.35,3.18,2.7-.62,5.91-1.69,8.69-1.13a14.66,14.66,0,0,1,3.65,1.43c.92.47,2,.82,2,2-.06,2.34-3.23,3.48-5,4.28a43.94,43.94,0,0,1-8,2.78c-2.18.53-1.26,3.89.92,3.36a48.76,48.76,0,0,0,10.39-3.84c2.83-1.43,5.57-3.81,5.16-7.3a4.88,4.88,0,0,0-2.47-3.67,21,21,0,0,0-4.88-2.21c-3.69-1.09-7.72.09-11.35.92l1.34,3.19c3.26-1.69,7.14-1.41,10.5-2.85,2.82-1.2,5.63-3.67,5.6-7,0-4.36-5.49-4.65-8.75-5a35.19,35.19,0,0,0-12.18.88c-2.17.55-1.25,3.91.93,3.37Z"/></svg>