<svg id="Layer_1" data-name="Layer 1" xmlns="http://www.w3.org/2000/svg" viewBox="0 0 64 64"><path d="M2.2,12.16q-.59,21,.82,42.05c.17,2.52,4.12,2.54,4,0q-1.41-21-.82-42c.07-2.54-3.88-2.54-3.95,0Z"/><path d="M3.82,13.49a22.63,22.63,0,0,0,6.36.58c2.32,0,4.63,0,7,0q6.81.08,13.63.3,13.76.45,27.49,1.46c2.53.19,2.52-3.76,0-3.95q-13.48-1-27-1.44-6.69-.23-13.39-.31c-2.23,0-4.46,0-6.69-.05a23,23,0,0,1-6.31-.43C2.42,9,1.38,12.78,3.82,13.49Z"/><path d="M5.93,54.86C10.45,56,15.12,56,19.75,56l13.7.18L47,56.4A32.25,32.25,0,0,0,53.5,56c2.18-.42,4.25-1.12,6.5-1,2.51.18,2.5-3.74,0-3.91a20.81,20.81,0,0,0-6.22.81,26.3,26.3,0,0,1-6.32.58c-4.51-.05-9-.12-13.52-.18l-13.7-.19c-4.44-.06-8.94.05-13.27-1-2.45-.6-3.49,3.17-1,3.77Z"/><path d="M57.63,13.72c.79,12.91,1.23,25.85.9,38.78-.07,2.54,3.88,2.54,3.94,0,.33-12.93-.11-25.87-.9-38.78-.15-2.52-4.1-2.54-3.94,0Z"/><path d="M3.87,15.38C12.67,23,24.34,26.67,32.51,35.07c1.78,1.83,4.57-1,2.79-2.79-8.21-8.44-19.83-12-28.63-19.69C4.76,10.93,2,13.71,3.87,15.38Z"/><path d="M36,35.35c3-3.93,7.24-6.71,11.4-9.27,4.37-2.69,8.82-5.25,12.72-8.6,1.93-1.66-.87-4.44-2.79-2.79C49.39,21.48,39,24.87,32.55,33.36a2,2,0,0,0,.71,2.7,2,2,0,0,0,2.7-.71Z"/></svg>