<svg id="Layer_1" data-name="Layer 1" xmlns="http://www.w3.org/2000/svg" viewBox="0 0 64 64"><path d="M35.42,18.68c-4.1,4.31-8.85,8.43-14.88,9.52a1.73,1.73,0,0,0-.76,2.87c4.08,3.21,9.54,2,14.28,1.49l-.87-3.2a74.67,74.67,0,0,1-10.55,5.17c-1.05.41-1.88,2-.75,2.86,2.89,2.28,6.45,1.35,9.82,1.31l-.86-3.2c-3.19,2-6.85,2.92-10.4,4.11A1.74,1.74,0,0,0,20,42.75c10.2,7.34,22.28-3.49,27.44-12,1.16-1.89-1.81-3.62-3-1.73C40.31,36,30.28,45.91,21.77,39.78l-.41,3.14c3.82-1.28,7.78-2.27,11.22-4.46a1.73,1.73,0,0,0-.87-3.2c-1.3,0-2.6.2-3.91.25-1.05,0-2.6.16-3.49-.54l-.75,2.87a81.66,81.66,0,0,0,11.37-5.52c1.37-.8.89-3.38-.87-3.2-2.06.22-4.1.55-6.17.63-1.83.07-4.16.09-5.68-1.11l-.76,2.87c6.58-1.18,11.92-5.7,16.4-10.4,1.53-1.6-.9-4-2.43-2.43Z"/><path d="M33,21.38a45.41,45.41,0,0,1-13.87,2.75c-1.91.06-4.76.44-6.41-.7-1.5-1-2.32-3-3.09-4.62-1-2-3.92-.25-3,1.73a15,15,0,0,0,3.66,5.36c2.1,1.71,4.82,1.69,7.41,1.69a48.18,48.18,0,0,0,16.17-2.9C36,24,35.07,20.63,33,21.38Z"/><path d="M5.82,19.94A33,33,0,0,0,8.2,32a31.76,31.76,0,0,0,5,9.31A15.2,15.2,0,0,0,22,46.54a34.74,34.74,0,0,0,5.39.61,8.81,8.81,0,0,0,5.48-1c1.84-1.21.12-4.18-1.73-3-1.3.85-2.89.62-4.37.53a24.89,24.89,0,0,1-4.46-.59,12.07,12.07,0,0,1-7.1-4.8,30.91,30.91,0,0,1-3.93-8,29.08,29.08,0,0,1-2-10.34c.05-2.21-3.39-2.21-3.44,0Z"/><path d="M24.74,46.63a67.15,67.15,0,0,0,2.63,8.56,1.72,1.72,0,0,0,3.31-.92,67.51,67.51,0,0,1-2.63-8.55,1.72,1.72,0,0,0-2.11-1.2,1.75,1.75,0,0,0-1.2,2.11Z"/><path d="M27.69,54.77c-.73.66-1.49,1.29-2.27,1.9l.35-.27c-.77.59-1.56,1.16-2.38,1.69a1.85,1.85,0,0,0-.79,1,1.73,1.73,0,0,0,2.53,1.94,41.5,41.5,0,0,0,5-3.86,1.73,1.73,0,0,0,0-2.43,1.76,1.76,0,0,0-2.43,0Z"/><path d="M27.88,59.24l.23,0-.45-.06a11.06,11.06,0,0,1,2.69.73l-.41-.17a12,12,0,0,1,1.59.82A1.72,1.72,0,0,0,33.88,60a1.76,1.76,0,0,0-.61-2.35,14.13,14.13,0,0,0-2.61-1.23,12,12,0,0,0-2.78-.59,1.7,1.7,0,0,0-1.22.5,1.73,1.73,0,0,0,0,2.43,2.08,2.08,0,0,0,1.22.5Z"/><path d="M32.09,45a54.75,54.75,0,0,0,5.53,9.29,1.77,1.77,0,0,0,2.35.61,1.74,1.74,0,0,0,.62-2.35,53.38,53.38,0,0,1-5.53-9.28,1.72,1.72,0,0,0-2.35-.61A1.75,1.75,0,0,0,32.09,45Z"/><path d="M38.55,54a7.63,7.63,0,0,0-.63,1.73,9.1,9.1,0,0,0-.21,1.88,1.72,1.72,0,0,0,2.93,1.21,1.83,1.83,0,0,0,.5-1.21,8.27,8.27,0,0,1,0-.86l-.06.46a6.48,6.48,0,0,1,.44-1.62l-.18.41.12-.27a1.22,1.22,0,0,0,.21-.64,1.31,1.31,0,0,0,0-.68,1.72,1.72,0,0,0-2.12-1.2,1.69,1.69,0,0,0-1,.79Z"/><path d="M40.45,58.06l.69.06-.46-.06a8.54,8.54,0,0,1,1.79.45,1.31,1.31,0,0,0,.68,0,1.24,1.24,0,0,0,.64-.2A1.72,1.72,0,0,0,44.41,56l-.27-.35a1.77,1.77,0,0,0-.76-.44,9.72,9.72,0,0,0-2.93-.58,1.88,1.88,0,0,0-1.21.51,1.75,1.75,0,0,0-.51,1.21,1.73,1.73,0,0,0,.51,1.21l.34.27a1.68,1.68,0,0,0,.87.24Z"/><path d="M38.53,20l2.39-5.7a15.91,15.91,0,0,1,2.46-4.73,16.28,16.28,0,0,1,4.09-3.08c1.5-.85,2.94-1.16,3.67.69,1.26,3.16.64,7.32-.43,10.43-1.35,3.9-3.67,7.56-5.57,11.21-1,2,1.94,3.7,3,1.74,2.29-4.4,5.21-8.87,6.42-13.72a22.21,22.21,0,0,0,.59-7.08,9.86,9.86,0,0,0-1.94-5.8C49.85.15,44.52,3.83,41.68,6.39a15,15,0,0,0-3.52,5.66l-2.94,7a1.74,1.74,0,0,0,1.2,2.12A1.76,1.76,0,0,0,38.53,20Z"/><path d="M52.76,13.87a14.14,14.14,0,0,0,3.63,4.5l.35-2.7-.55.25.41-.17a14.52,14.52,0,0,1-3.42,1,1.71,1.71,0,0,0-1,.79A1.75,1.75,0,0,0,52,18.83a1.78,1.78,0,0,0,.79,1A2,2,0,0,0,54.1,20a16.49,16.49,0,0,0,4.37-1.39,1.73,1.73,0,0,0,.35-2.7,11.7,11.7,0,0,1-2-2.07l.26.35a14.15,14.15,0,0,1-1.32-2.09,1.73,1.73,0,0,0-2.35-.61,1.76,1.76,0,0,0-.62,2.35Z"/><path d="M48.31,13.22l.11-.25a1.3,1.3,0,0,0,.2-.63,1.35,1.35,0,0,0,0-.69,1.17,1.17,0,0,0-.31-.58,1.2,1.2,0,0,0-.48-.44l-.41-.18a1.76,1.76,0,0,0-.91,0l-.41.18a1.73,1.73,0,0,0-.62.61l-.1.25a1.24,1.24,0,0,0-.2.64,1.13,1.13,0,0,0,0,.68,1.33,1.33,0,0,0,.3.59,1.39,1.39,0,0,0,.49.44l.41.17a1.76,1.76,0,0,0,.91,0l.41-.17a1.73,1.73,0,0,0,.61-.62Z"/></svg>